<svg xmlns="http://www.w3.org/2000/svg" xmlns:xlink="http://www.w3.org/1999/xlink"><defs><clipPath id="clip0"><path transform="rotate(-90 0 12)" fill="#fff" d="M0 12h12v7.4H0z"/></clipPath></defs><symbol id="icon-arrow-more" viewBox="0 0 8 12"><g clip-path="url(#clip0)"><path fill-rule="evenodd" clip-rule="evenodd" d="M0 1.4L4.6 6 0 10.6 1.4 12l6-6-6-6L0 1.4z" fill="#2C2E3F" fill-opacity=".5"/></g></symbol><symbol id="icon-arrow"><path d="M8 1v14m7-7l-7 7-7-7" stroke="#fff" stroke-width="2" stroke-linecap="round" stroke-linejoin="round"/></symbol><symbol id="icon-burger"><path fill-rule="evenodd" clip-rule="evenodd" d="M.75 14h22.5v-1H.75v1zm0-6.25h22.5v-1H.75v1zM.75.5v1h22.5v-1H.75z" fill="#fff"/></symbol><symbol id="icon-close"><path d="M1 23.721L23 1m0 22.721L1 1" stroke="#141517" stroke-opacity=".2" stroke-linecap="round" stroke-linejoin="round"/></symbol><symbol id="icon-logo"><path d="M27.734 0l-5.676 17.073h-4.312l-3.817-11.56-3.94 11.56H5.7L0 0h4.164L8.08 12l4.09-12h3.717l3.965 12.098L23.892 0h3.842zm6.355 3.756c2.065 0 3.651.488 4.758 1.464 1.107.959 1.66 2.414 1.66 4.365v7.488H36.89V15.44c-.727 1.22-2.082 1.83-4.064 1.83-1.025 0-1.917-.171-2.677-.513-.744-.341-1.314-.813-1.71-1.415-.397-.601-.595-1.284-.595-2.048 0-1.22.463-2.18 1.388-2.878.942-.7 2.387-1.05 4.337-1.05h3.073c0-.828-.256-1.463-.768-1.902-.512-.455-1.28-.683-2.305-.683a6.72 6.72 0 00-2.106.342c-.678.211-1.256.504-1.735.878L28.34 5.342c.727-.504 1.594-.894 2.602-1.17a12.029 12.029 0 013.148-.415zm-.298 10.951c.661 0 1.248-.146 1.76-.439a2.535 2.535 0 001.09-1.341v-1.342H33.99c-1.587 0-2.38.513-2.38 1.537 0 .488.19.878.57 1.17.397.277.934.415 1.611.415zM57 3.951l-6.023 13.927c-.611 1.512-1.371 2.577-2.28 3.195-.892.618-1.974.927-3.247.927-.694 0-1.38-.106-2.057-.317-.677-.212-1.23-.504-1.66-.878l1.412-2.707a3.37 3.37 0 002.181.829c.53 0 .959-.13 1.29-.39.33-.244.627-.659.892-1.244l.05-.122-5.776-13.22h3.99l3.743 8.903 3.767-8.903H57z" fill="#141517"/><path d="M57.017 3.95l-6.022 13.927c-.612 1.512-1.372 2.577-2.28 3.195-.893.618-1.975.927-3.247.927-.694 0-1.38-.106-2.057-.317-.678-.211-1.231-.504-1.661-.878l1.413-2.707a3.368 3.368 0 002.18.829c.53 0 .96-.13 1.29-.39.33-.244.627-.659.892-1.244l.05-.122 1.957-4.317L53.3 3.95h3.717z" fill="#FE7865"/></symbol><symbol id="icon-phone"><path d="M7.396 8.624c-.084-1.198.182-2.378.885-3.327.61-.86 1.404-1.33 2.362-1.605.806-.24 1.334.054 1.567.95.332 1.34.806 2.68.978 4.092.055.62-.347 1.5-.782 1.952-1.09 1.073-.863 1.854-.036 3.478.257.524.664 1.43 1.459 2.628.827 1.207 1.265 1.855 2.328 1.305 1.18-.594 2.041-.212 2.932.747.604.693 1.268 1.288 1.872 1.98.873 1.03.834 1.74.151 2.467-1.229 1.34-3.258 1.783-4.768.886-.833-.489-1.664-1.128-2.325-1.874-2.914-3.32-5.016-7.182-6.281-11.54a10.989 10.989 0 01-.342-2.139z" stroke-width="2" stroke-miterlimit="10"/></symbol><symbol id="icon-post" viewBox="0 0 26 20">
<path d="M24.2273 0H1.77273C0.768182 0 0 0.764706 0 1.76471V18.2353C0 19.2353 0.768182 20 1.77273 20H24.2273C25.2318 20 26 19.2353 26 18.2353V1.76471C26 0.764706 25.2318 0 24.2273 0ZM24.2273 17L19.5591 12.3529C19.2045 12 18.6727 12 18.3182 12.3529C17.9636 12.7059 17.9636 13.2353 18.3182 13.5882L22.9864 18.2353H3.01362L7.68182 13.5882C8.03636 13.2353 8.03636 12.7059 7.68182 12.3529C7.32727 12 6.79547 12 6.44092 12.3529L1.77273 17V5.70585L12.4091 13.7059C12.5864 13.8236 12.7636 13.8823 12.9409 13.8823C13.1182 13.8823 13.2954 13.8236 13.4727 13.7059L24.2273 5.70585V17ZM24.2273 1.76471V3.4706L12.9409 11.8235L1.77273 3.4706V1.76471H24.2273Z" fill="#D7D9DF"/>
</symbol></svg>